<?xml version="1.0" encoding="iso-8859-1"?>
<!-- Generator: Adobe Illustrator 16.0.0, SVG Export Plug-In . SVG Version: 6.00 Build 0)  -->
<!DOCTYPE svg PUBLIC "-//W3C//DTD SVG 1.1//EN" "http://www.w3.org/Graphics/SVG/1.1/DTD/svg11.dtd">
<svg version="1.1" id="Capa_1" xmlns="http://www.w3.org/2000/svg" xmlns:xlink="http://www.w3.org/1999/xlink" x="0px" y="0px"
	 width="350.106px" height="350.105px" viewBox="0 0 350.106 350.105" style="enable-background:new 0 0 350.106 350.105;"
	 xml:space="preserve">
<g>
	<path d="M304.823,72.413c6.463,0,12.537-2.514,17.093-7.073c1.187-1.182,2.257-2.539,3.276-4.14l23.783-30.58
		c1.665-2.14,1.47-5.181-0.444-7.1L329.522,4.512c-1.906-1.914-4.961-2.107-7.103-0.447L291.84,27.851
		c-1.59,1.011-2.943,2.082-4.13,3.271c-4.567,4.567-7.081,10.643-7.081,17.102c0,4.625,1.338,9.027,3.742,12.843l-93.965,93.973
		l-24.711-24.704c-0.795-0.798-1.845-1.227-2.948-1.405l-31.879-31.882c8.002-24.011,1.75-50.882-16.132-68.767
		C102.049,15.596,85.177,8.606,67.24,8.606c-8.785,0-17.341,1.68-25.444,4.984c-1.666,0.677-2.879,2.149-3.241,3.914
		c-0.354,1.769,0.2,3.59,1.467,4.866l31.017,31.014l-1.326,24.911l-24.911,1.328L13.786,48.607
		c-1.273-1.275-3.095-1.822-4.864-1.467c-1.763,0.354-3.236,1.57-3.914,3.242c-10.251,25.128-4.477,53.759,14.696,72.932
		c12.643,12.649,29.467,19.609,47.379,19.609l0,0c7.294,0,14.443-1.231,21.336-3.527l30.299,30.308L32.964,255.46
		c-8.627,8.63-13.383,20.105-13.383,32.306c0,12.204,4.751,23.679,13.383,32.309c8.636,8.627,20.105,13.377,32.308,13.377
		c12.202,0,23.677-4.75,32.305-13.377l85.774-85.769l25.203,25.201c-7.606,23.823-1.312,50.3,16.379,67.984
		c12.687,12.684,29.553,19.677,47.495,19.677l0,0c8.777,0,17.345-1.681,25.439-4.988c1.664-0.676,2.883-2.146,3.238-3.909
		c0.358-1.771-0.199-3.591-1.465-4.866l-31.018-31.015l1.327-24.908l24.909-1.328l31.019,31.014c1.27,1.275,3.108,1.821,4.861,1.471
		c1.764-0.358,3.238-1.571,3.916-3.246c10.252-25.128,4.478-53.759-14.698-72.93c-12.64-12.651-29.465-19.611-47.376-19.611
		c-7.596,0-15.023,1.329-22.178,3.812c-0.127-0.153-0.227-0.321-0.369-0.462l-25.917-25.922c-0.177-1.102-0.603-2.143-1.4-2.945
		l-24.709-24.693l93.965-93.967C295.795,71.074,300.194,72.413,304.823,72.413z M51.022,278.888c-1.378,0-2.754-0.53-3.801-1.574
		c-2.102-2.105-2.102-5.502,0-7.602l75.153-75.149c2.103-2.101,5.499-2.101,7.601,0c2.1,2.104,2.1,5.5,0,7.601l-75.152,75.15
		C53.768,278.362,52.397,278.888,51.022,278.888z M66.228,294.095c-1.376,0-2.751-0.529-3.798-1.574c-2.103-2.105-2.103-5.5,0-7.601
		l75.147-75.15c2.1-2.101,5.499-2.101,7.599,0c2.103,2.104,2.103,5.501,0,7.602l-75.147,75.149
		C68.975,293.565,67.605,294.095,66.228,294.095z M158.48,230.678l-75.148,75.145c-1.047,1.05-2.422,1.576-3.8,1.576
		c-1.375,0-2.75-0.526-3.801-1.576c-2.1-2.099-2.1-5.495,0-7.601l75.148-75.145c2.102-2.106,5.501-2.106,7.601,0
		C160.583,225.176,160.578,228.572,158.48,230.678z"/>
</g>
<g>
</g>
<g>
</g>
<g>
</g>
<g>
</g>
<g>
</g>
<g>
</g>
<g>
</g>
<g>
</g>
<g>
</g>
<g>
</g>
<g>
</g>
<g>
</g>
<g>
</g>
<g>
</g>
<g>
</g>
</svg>
